<?xml version="1.0" standalone="no"?>
<!DOCTYPE svg PUBLIC "-//W3C//DTD SVG 20010904//EN"
 "http://www.w3.org/TR/2001/REC-SVG-20010904/DTD/svg10.dtd">
<svg version="1.0" xmlns="http://www.w3.org/2000/svg"
 width="160.000000pt" height="160.000000pt" viewBox="0 0 160.000000 160.000000"
 preserveAspectRatio="xMidYMid meet">

<g transform="translate(0.000000,160.000000) scale(0.100000,-0.100000)"
fill="#000000" stroke="none">
<path d="M382 1459 c-13 -5 -35 -18 -49 -29 -14 -11 -33 -20 -43 -20 -10 0
-29 -9 -44 -21 -33 -26 -35 -73 -3 -120 28 -43 135 -99 188 -99 42 0 43 1 55
120 8 88 -8 145 -46 165 -16 8 -30 15 -32 14 -2 0 -14 -4 -26 -10z m63 -41
c13 -12 19 -189 7 -206 -7 -10 -23 -12 -66 -7 -44 6 -62 14 -85 37 -41 42 -57
83 -45 116 10 28 38 34 76 18 14 -6 20 -1 28 20 6 16 17 32 23 36 13 8 46 1
62 -14z"/>
<path d="M1365 1410 c3 -5 10 -10 16 -10 5 0 9 5 9 10 0 6 -7 10 -16 10 -8 0
-12 -4 -9 -10z"/>
<path d="M893 1384 c-3 -8 -1 -20 6 -27 8 -8 11 -4 11 16 0 30 -7 35 -17 11z"/>
<path d="M1096 1294 c-3 -9 -6 -28 -6 -42 l1 -27 14 25 c16 28 19 60 6 60 -5
0 -12 -7 -15 -16z"/>
<path d="M1423 1253 c-22 -33 -24 -103 -4 -127 16 -20 64 -15 112 10 50 25 46
87 -5 100 -13 3 -26 14 -29 25 -8 30 -53 25 -74 -8z m67 -18 c6 -15 17 -25 29
-25 46 0 31 -51 -20 -69 -63 -22 -69 -17 -69 47 0 32 3 62 7 65 15 16 44 6 53
-18z"/>
<path d="M152 1188 c5 -15 50 -39 58 -32 6 7 -38 44 -52 44 -5 0 -8 -6 -6 -12z"/>
<path d="M705 1135 c-81 -28 -173 -158 -200 -282 -11 -52 11 -39 24 14 38 148
143 263 241 263 39 0 90 -21 114 -48 18 -20 18 -22 -3 -50 -24 -35 -91 -187
-91 -208 0 -31 18 -2 44 70 48 132 115 195 205 196 37 0 93 -30 116 -63 18
-26 20 -77 3 -77 -9 0 -9 -3 0 -12 18 -18 14 -51 -13 -110 -14 -29 -25 -60
-25 -68 0 -25 38 40 66 112 20 52 33 72 60 89 42 26 38 37 -5 14 l-31 -16 -19
43 c-37 85 -112 120 -211 101 -49 -10 -57 -9 -114 18 -67 32 -101 35 -161 14z"/>
<path d="M1450 1000 c0 -5 7 -10 15 -10 8 0 15 5 15 10 0 6 -7 10 -15 10 -8 0
-15 -4 -15 -10z"/>
<path d="M115 880 c4 -14 12 -31 17 -38 15 -18 117 -78 161 -93 20 -7 37 -16
37 -20 0 -3 -10 -28 -22 -55 -16 -37 -21 -68 -21 -126 0 -105 33 -172 110
-230 l55 -42 -7 -67 c-5 -44 -3 -69 4 -73 7 -5 11 5 11 26 0 114 130 187 221
125 30 -21 34 -28 31 -63 l-3 -39 23 40 c26 45 93 85 144 85 44 0 94 -37 127
-95 23 -41 27 -44 22 -20 -23 110 -128 155 -245 104 l-48 -21 -41 21 c-49 26
-127 28 -175 5 -33 -16 -36 -16 -81 10 -120 71 -168 242 -102 361 16 29 30 41
50 43 28 3 38 22 11 22 -24 0 -6 18 44 45 38 20 43 24 23 25 -13 0 -45 -14
-71 -30 l-48 -31 -48 17 c-67 22 -107 48 -150 97 -30 35 -35 38 -29 17z"/>
<path d="M1130 720 c0 -6 7 -22 16 -35 18 -28 44 -118 44 -156 0 -17 -8 -30
-22 -37 l-23 -11 22 0 c46 -2 154 42 194 78 31 28 41 45 44 76 4 37 4 38 -4 8
-14 -53 -37 -80 -95 -108 -76 -37 -87 -33 -102 43 -15 73 -74 186 -74 142z"/>
<path d="M576 694 c-32 -31 -9 -52 38 -35 23 9 25 14 16 31 -13 24 -33 26 -54
4z"/>
<path d="M824 668 c-8 -13 22 -38 48 -38 21 0 24 20 6 38 -15 15 -45 15 -54 0z"/>
<path d="M525 593 c-3 -15 -14 -38 -24 -52 -10 -14 -24 -42 -30 -62 -6 -20
-21 -45 -31 -54 -11 -10 -20 -23 -20 -28 0 -6 9 -2 20 8 30 27 121 215 105
215 -7 0 -16 -12 -20 -27z"/>
<path d="M570 596 c-5 -15 -10 -35 -10 -45 0 -10 -9 -30 -21 -45 -12 -15 -23
-44 -26 -66 -3 -22 -12 -45 -19 -51 -8 -6 -14 -21 -14 -33 1 -19 3 -18 16 7 9
16 22 49 29 74 7 25 20 52 28 61 16 19 41 111 33 120 -3 2 -10 -7 -16 -22z"/>
<path d="M861 593 c-1 -18 8 -55 19 -82 10 -27 22 -72 26 -100 4 -29 11 -54
15 -57 15 -9 10 32 -15 113 -13 43 -29 96 -34 118 -10 39 -10 40 -11 8z"/>
<path d="M667 594 c-36 -20 -27 -31 12 -15 24 10 35 10 62 -4 l34 -16 -28 25
c-32 30 -41 31 -80 10z"/>
<path d="M900 583 c0 -12 11 -48 25 -79 14 -31 25 -62 25 -68 1 -21 40 -99 47
-92 4 4 0 21 -10 39 -9 18 -24 52 -33 77 -46 126 -53 144 -54 123z"/>
<path d="M737 513 c3 -25 -1 -45 -11 -58 -9 -11 -15 -15 -16 -7 0 17 -50 95
-56 89 -7 -7 31 -81 50 -96 20 -17 35 -6 52 35 20 47 18 74 -5 74 -16 0 -18
-6 -14 -37z"/>
<path d="M1170 455 c-39 -11 -41 -13 -15 -13 17 0 48 5 70 13 55 18 7 18 -55
0z"/>
<path d="M214 415 c11 -8 26 -15 33 -15 22 0 14 8 -19 19 -30 10 -31 9 -14 -4z"/>
<path d="M1108 346 c-38 -41 -68 -80 -68 -88 1 -7 14 -40 30 -73 32 -69 40
-51 10 24 l-20 51 48 48 c47 47 90 112 75 112 -4 -1 -38 -34 -75 -74z"/>
</g>
</svg>
