<?xml version="1.0" standalone="no"?>
<!DOCTYPE svg PUBLIC "-//W3C//DTD SVG 20010904//EN"
 "http://www.w3.org/TR/2001/REC-SVG-20010904/DTD/svg10.dtd">
<svg version="1.0" xmlns="http://www.w3.org/2000/svg"
 width="128.000000pt" height="111.000000pt" viewBox="0 0 128.000000 111.000000"
 preserveAspectRatio="xMidYMid meet">

<g transform="translate(0.000000,111.000000) scale(0.100000,-0.100000)"
fill="#000000" stroke="none">
<path d="M303 1079 c-12 -4 -25 -14 -30 -23 -4 -8 -24 -16 -43 -18 -70 -6 -73
-93 -5 -146 40 -31 132 -59 147 -44 6 6 14 50 16 97 3 66 1 90 -11 109 -18 27
-44 36 -74 25z m57 -40 c11 -19 12 -123 2 -160 -3 -14 -10 -15 -40 -7 -21 5
-44 10 -52 10 -23 0 -70 67 -70 99 0 38 29 54 59 33 23 -16 20 -19 36 31 7 22
52 19 65 -6z"/>
<path d="M1090 1040 c0 -5 5 -10 10 -10 6 0 10 5 10 10 0 6 -4 10 -10 10 -5 0
-10 -4 -10 -10z"/>
<path d="M714 1019 c-3 -6 -1 -16 5 -22 8 -8 11 -5 11 11 0 24 -5 28 -16 11z"/>
<path d="M876 944 c-3 -9 -6 -25 -6 -37 1 -17 2 -19 9 -7 16 27 22 60 13 60
-6 0 -13 -7 -16 -16z"/>
<path d="M1146 924 c-33 -32 -32 -108 0 -121 24 -9 92 15 104 37 14 26 -4 60
-30 60 -11 0 -20 6 -20 14 0 8 -7 17 -16 20 -21 8 -20 8 -38 -10z m44 -24 c0
-15 7 -20 26 -20 21 0 25 -4 22 -22 -2 -17 -14 -27 -41 -36 -22 -6 -43 -10
-48 -6 -10 6 -12 64 -3 88 9 24 44 20 44 -4z"/>
<path d="M120 862 c0 -11 41 -34 48 -27 4 4 -2 13 -12 21 -22 15 -36 18 -36 6z"/>
<path d="M48 833 c7 -3 16 -2 19 1 4 3 -2 6 -13 5 -11 0 -14 -3 -6 -6z"/>
<path d="M534 805 c-23 -14 -55 -46 -72 -72 -34 -53 -67 -145 -59 -165 6 -15
10 -5 26 57 18 69 76 151 124 174 23 11 51 18 62 16 11 -2 28 -4 37 -4 9 -1
29 -12 44 -24 l28 -24 -22 -31 c-19 -25 -72 -150 -72 -167 0 -3 4 -5 9 -5 5 0
13 15 17 33 10 48 52 132 77 155 12 11 41 25 64 31 37 10 48 9 81 -8 57 -29
82 -96 40 -104 l-23 -4 23 -2 c30 -1 29 -28 -4 -92 -14 -28 -23 -53 -20 -56 8
-9 46 59 58 105 7 31 19 47 39 57 15 8 31 20 34 26 4 6 -7 4 -23 -5 -40 -21
-39 -21 -47 13 -14 67 -97 105 -179 83 -34 -10 -43 -8 -75 13 -48 34 -112 33
-167 0z"/>
<path d="M1160 710 c0 -5 4 -10 9 -10 6 0 13 5 16 10 3 6 -1 10 -9 10 -9 0
-16 -4 -16 -10z"/>
<path d="M91 625 c-1 -11 3 -25 7 -31 15 -21 79 -62 124 -79 l46 -17 -21 -46
c-40 -91 -17 -220 49 -270 16 -13 39 -31 51 -40 20 -16 21 -20 11 -58 -7 -25
-8 -49 -3 -60 8 -16 10 -13 12 16 8 78 49 120 120 120 42 0 97 -36 87 -58 -4
-9 -8 -33 -10 -52 -3 -33 -3 -33 7 6 13 53 56 94 106 101 59 8 100 -17 129
-80 21 -46 23 -48 18 -17 -4 19 -13 45 -22 58 -34 52 -121 68 -179 32 -33 -20
-33 -20 -65 0 -40 24 -114 26 -146 5 -19 -14 -24 -14 -51 0 -108 55 -150 186
-96 298 16 33 21 37 59 38 l41 2 -34 6 c-29 5 -32 8 -19 18 8 7 30 19 49 27
33 15 33 15 7 16 -14 0 -40 -12 -57 -26 -31 -26 -31 -26 -79 -10 -62 21 -113
58 -129 94 -10 22 -12 23 -12 7z"/>
<path d="M900 486 c0 -8 5 -18 11 -21 14 -9 29 -51 38 -107 7 -42 6 -47 -13
-52 -11 -3 -17 -8 -14 -12 4 -3 38 3 76 15 84 25 133 71 131 124 l-1 32 -7
-37 c-4 -20 -14 -44 -21 -53 -16 -19 -62 -44 -101 -55 -26 -8 -27 -6 -32 42
-4 28 -18 70 -32 94 -27 47 -35 53 -35 30z"/>
<path d="M468 473 c-10 -2 -18 -14 -18 -25 0 -17 4 -19 27 -13 16 4 29 8 31 9
5 5 -10 36 -17 35 -3 -1 -14 -3 -23 -6z"/>
<path d="M657 446 c-3 -8 5 -18 19 -25 33 -15 34 -14 34 8 0 28 -43 42 -53 17z"/>
<path d="M427 403 c-4 -3 -7 -13 -7 -21 0 -7 -9 -25 -20 -39 -11 -14 -20 -34
-20 -44 0 -10 -11 -29 -25 -43 -14 -14 -25 -30 -25 -36 0 -6 14 5 30 23 17 19
30 41 30 49 0 9 9 27 20 41 11 14 20 31 20 39 0 8 5 19 12 26 7 7 8 12 2 12
-6 0 -14 -3 -17 -7z"/>
<path d="M456 394 c-3 -9 -6 -26 -6 -38 0 -13 -9 -31 -20 -41 -12 -11 -20 -31
-20 -50 0 -18 -7 -38 -15 -45 -8 -7 -15 -22 -15 -33 0 -15 6 -10 20 18 11 22
20 49 20 61 0 11 9 29 20 39 11 10 20 29 20 42 0 13 5 33 10 44 6 11 7 19 1
19 -5 0 -12 -7 -15 -16z"/>
<path d="M687 373 c3 -21 12 -47 19 -58 7 -11 16 -46 19 -78 4 -32 11 -55 16
-50 9 9 -6 81 -27 131 -8 18 -14 44 -14 57 0 13 -4 26 -9 30 -6 3 -7 -10 -4
-32z"/>
<path d="M530 384 c-24 -13 -24 -14 -3 -14 12 0 25 5 28 10 4 7 14 5 28 -5 32
-22 46 -18 17 5 -29 23 -36 23 -70 4z"/>
<path d="M720 367 c4 -17 15 -45 24 -62 9 -16 16 -37 16 -45 0 -9 9 -33 20
-55 14 -27 20 -33 20 -19 0 11 -7 29 -15 40 -8 10 -15 28 -15 39 0 11 -9 35
-20 53 -11 18 -20 41 -20 52 0 10 -4 21 -9 24 -5 4 -6 -8 -1 -27z"/>
<path d="M580 350 c0 -5 5 -12 10 -15 6 -3 7 -18 4 -33 -8 -33 -24 -53 -24
-29 0 9 -3 17 -8 17 -4 0 -13 14 -21 31 -7 16 -16 28 -19 25 -10 -11 41 -97
56 -94 8 2 20 21 28 43 18 51 18 52 -6 58 -11 3 -20 1 -20 -3z"/>
<path d="M946 279 c-56 -13 -60 -23 -7 -15 45 7 92 26 61 25 -8 -1 -33 -5 -54
-10z"/>
<path d="M164 245 c11 -8 26 -15 33 -15 22 0 14 8 -19 19 -30 10 -31 9 -14 -4z"/>
<path d="M925 231 c-3 -11 -26 -38 -51 -61 l-46 -42 22 -59 c13 -32 26 -59 31
-59 5 0 -1 25 -12 57 l-22 56 27 20 c24 17 76 87 76 102 0 14 -19 3 -25 -14z"/>
<path d="M300 110 c0 -5 5 -10 11 -10 5 0 7 5 4 10 -3 6 -8 10 -11 10 -2 0 -4
-4 -4 -10z"/>
</g>
</svg>
